<svg width="180" height="32" viewBox="0 0 180 32" fill="none" xmlns="http://www.w3.org/2000/svg">
<path d="M19.2567 31.2368C19.2566 31.2367 19.2564 31.2366 19.2562 31.2366C15.9686 31.2366 12.681 31.233 9.39423 31.243C9.08281 31.2439 8.86089 31.1676 8.63897 30.9369C6.39327 28.5973 4.13296 26.2712 1.87995 23.9379C1.33291 23.3712 0.784043 22.8054 0.26166 22.2168C0.124671 22.0624 0.00686105 21.8254 0.00686105 21.6264C-0.00501129 17.7973 -0.00135821 13.9672 0.0169069 10.138C0.0178202 9.94454 0.139283 9.71112 0.278098 9.56489C2.14571 7.59944 4.02519 5.6467 5.90285 3.69033C6.86634 2.6858 7.82252 1.67492 8.80518 0.688562C8.92938 0.563224 9.18966 0.526894 9.38692 0.525986C12.6893 0.511454 15.9925 0.508729 19.2949 0.505096C20.5579 0.504188 21.8209 0.522353 23.084 0.501463C23.5232 0.494197 23.6858 0.649508 23.6748 1.08093C23.6529 1.92742 23.6465 2.77572 23.6666 3.62312C23.6767 4.05181 23.5324 4.19622 23.0885 4.19441C19.1159 4.17715 15.1441 4.18351 11.1714 4.17443C10.8481 4.17443 10.6262 4.26343 10.3888 4.50775C8.35403 6.60763 6.30286 8.69206 4.24255 10.7674C3.85715 11.1552 3.67359 11.5567 3.68089 12.1225C3.71286 14.7101 3.70373 17.2986 3.68911 19.8871C3.68729 20.2477 3.77861 20.5266 4.02337 20.78C5.49828 22.3049 6.97045 23.8317 8.44079 25.3612C9.05998 26.0051 9.66181 26.6681 10.2974 27.2957C10.449 27.4447 10.7057 27.5682 10.9139 27.5682C16.4537 27.5818 21.9944 27.5818 27.5343 27.5646C27.7699 27.5646 28.0667 27.4347 28.2311 27.2658C30.3389 25.1096 32.4266 22.9343 34.5234 20.7672C34.7691 20.5129 34.8695 20.2423 34.8677 19.8781C34.8504 17.2596 34.8494 14.6411 34.8677 12.0226C34.8714 11.5458 34.717 11.1988 34.3883 10.8619C32.4722 8.90096 30.5681 6.92824 28.6722 4.94825C28.2018 4.45689 27.748 4.00458 26.9735 4.17897C26.6575 4.24981 26.5534 4.05726 26.5571 3.75481C26.5671 2.81659 26.5689 1.87837 26.5525 0.940148C26.547 0.620444 26.6776 0.506913 26.9808 0.510546C27.7717 0.519628 28.5635 0.509637 29.3544 0.532343C29.5023 0.536885 29.6813 0.624077 29.7864 0.73125C31.2631 2.23077 32.7353 3.73483 34.1965 5.24979C35.5499 6.65395 36.8979 8.06446 38.2248 9.49314C38.3975 9.67842 38.5125 9.99177 38.5143 10.247C38.5399 14.0453 38.5445 17.8445 38.5408 21.6437C38.5408 21.8226 38.4669 22.047 38.3463 22.1723C35.5116 25.1241 32.6686 28.0687 29.8119 30.9987C29.6685 31.1458 29.3845 31.2203 29.1663 31.2212C25.8647 31.2348 22.5623 31.2312 19.2608 31.2312C19.2594 31.2312 19.2583 31.2323 19.2583 31.2336V31.2358C19.2583 31.2366 19.2575 31.2371 19.2567 31.2368Z" fill="#5CC76D"/>
<path d="M17.7212 21.087C18.2167 21.087 18.7113 21.087 19.2068 21.087C21.031 21.0888 22.8562 21.097 24.6804 21.0806C24.8638 21.0788 25.091 20.9712 25.2215 20.8382C26.1232 19.9177 26.9992 18.9716 27.8972 18.0474C28.1582 17.7795 28.2823 17.5043 28.2622 17.1187C28.2239 16.3459 28.2586 15.5693 28.2166 14.7965C28.2029 14.5458 28.1052 14.246 27.9401 14.0664C26.9956 13.0393 26.0228 12.0376 25.0472 11.0387C24.9578 10.9476 24.7826 10.9002 24.6475 10.9002C21.0593 10.8929 17.4702 10.8938 13.882 10.902C13.746 10.902 13.5708 10.9549 13.4805 11.0469C12.4639 12.0905 11.4555 13.1423 10.4608 14.2059C10.3404 14.3344 10.2573 14.5477 10.2528 14.7236C10.2318 15.5739 10.2199 16.4251 10.2582 17.2737C10.2701 17.5334 10.3869 17.8424 10.5612 18.0329C12.0368 19.6451 13.5425 21.2292 15.0264 22.8342C15.4681 23.3126 15.8705 23.8285 16.2821 24.3343C16.2899 24.344 16.2974 24.3539 16.3046 24.3642C16.427 24.5383 16.2823 24.8092 16.0694 24.8092C14.8229 24.8092 13.5754 24.8137 12.3288 24.7937C12.1564 24.7909 11.9401 24.7034 11.8214 24.5804C10.1834 22.8925 8.55264 21.1964 6.93923 19.4856C6.78318 19.3198 6.67368 19.0391 6.67094 18.8103C6.64812 16.9118 6.64812 15.0134 6.66546 13.1158C6.66729 12.9026 6.76676 12.6401 6.91277 12.4851C8.43675 10.8601 9.98263 9.25603 11.513 7.63646C11.8014 7.33114 12.1071 7.18441 12.5451 7.18441C17.0158 7.18988 21.4864 7.17894 25.9562 7.15433C26.4079 7.1516 26.7273 7.29833 27.0302 7.61915C28.5168 9.19679 30.0152 10.7644 31.5191 12.3247C31.7756 12.5909 31.8933 12.8506 31.8887 13.2407C31.8632 15.1082 31.8906 16.9765 31.8769 18.844C31.875 19.0454 31.7838 19.2933 31.6469 19.4383C30.1366 21.0378 28.5971 22.6099 27.095 24.2177C26.7127 24.6269 26.3294 24.8165 25.7563 24.8028C24.3281 24.7682 22.8982 24.8019 21.4691 24.8192C21.1159 24.8237 20.8595 24.729 20.604 24.4482C19.7462 23.5059 18.8427 22.6054 17.9639 21.6821C17.8547 21.568 17.7782 21.422 17.6913 21.287C17.6759 21.2631 17.6721 21.2334 17.6817 21.2066C17.6957 21.1679 17.7099 21.1289 17.7236 21.0904C17.7242 21.0887 17.723 21.087 17.7212 21.087Z" fill="#5CC76D"/>
<path d="M25.4644 15.8806C25.4644 15.8806 25.4643 15.8807 25.4642 15.8808C24.8466 16.5281 24.2643 17.1539 23.6585 17.7571C23.5482 17.8671 23.342 17.9329 23.1801 17.9338C20.574 17.9401 17.9679 17.9374 15.3618 17.9176C15.1801 17.9158 14.9594 17.8031 14.8265 17.6723C13.8225 16.6851 13.8177 15.047 14.8042 14.0423C14.8306 14.0154 14.857 13.9886 14.8835 13.9618C14.982 13.8617 15.1801 13.8184 15.332 13.8175C17.9833 13.8067 20.6346 13.8022 23.285 13.8157C23.4505 13.8157 23.6494 13.9474 23.7742 14.0754C24.3383 14.6542 24.8816 15.2536 25.4647 15.8801C25.4649 15.8803 25.4647 15.8806 25.4644 15.8806Z" fill="#5CC76D"/>
<path d="M88.8232 4.69053C90.2525 4.69053 91.59 4.61712 92.9114 4.73642C93.2992 4.77083 93.7718 5.2916 93.9782 5.70226C96.0613 9.82716 98.094 13.975 100.145 18.116C100.262 18.3523 100.393 18.584 100.622 19.0153C100.895 18.5106 101.113 18.1435 101.297 17.7627C103.251 13.7043 105.22 9.65051 107.135 5.57149C107.466 4.86947 107.867 4.63318 108.62 4.66988C109.829 4.73183 111.045 4.68594 112.32 4.68594V26.9118H107.906V13.4015C107.819 13.3739 107.729 13.3464 107.642 13.3189C107.144 14.31 106.637 15.2964 106.153 16.2944C105.018 18.6299 103.866 20.9561 102.783 23.3145C102.423 24.0992 101.9 24.223 101.106 24.34C99.3489 24.5993 98.5138 23.8284 97.8324 22.3074C96.6005 19.5567 95.1735 16.8932 93.8245 14.1953C93.68 13.9085 93.501 13.6401 93.1432 13.4106V26.9164H88.8255V4.68365L88.8232 4.69053Z" fill="white"/>
<path d="M148.614 27.4028C141.722 27.3798 136.893 22.6034 136.93 15.8539C136.969 9.08616 141.759 4.37396 148.573 4.40149C155.434 4.42902 160.387 9.32705 160.344 16.0444C160.3 22.7433 155.462 27.4257 148.612 27.4028H148.614ZM141.791 16.1797C141.837 16.5651 141.88 17.2144 141.997 17.8499C142.596 21.1007 145.092 23.287 148.332 23.4224C151.741 23.5646 154.212 21.8004 155.125 18.4968C155.723 16.3311 155.613 14.1792 154.634 12.1328C152.498 7.67296 146.109 7.06959 143.2 11.05C142.147 12.4907 141.83 14.17 141.791 16.1797Z" fill="white"/>
<path d="M52.4057 26.9577H47.7188V4.84425C47.8082 4.79836 47.9046 4.69972 48.0009 4.70201C51.4743 4.75707 54.9614 4.64236 58.4141 4.93372C62.8281 5.30537 65.4343 8.76956 64.8929 13.1514C64.6772 14.9087 63.8375 16.3242 62.3395 17.3061C61.7728 17.6778 61.1763 18.0036 60.4789 18.4165C62.2637 21.22 64.0188 23.9799 65.9298 26.9783C64.0532 26.9783 62.3349 27.0059 60.6211 26.9439C60.4009 26.937 60.1531 26.4851 59.9902 26.1983C58.8202 24.1427 57.6318 22.0941 56.5306 20.0018C56.1383 19.2539 55.6864 18.9304 54.8421 19.013C54.0919 19.0864 53.328 19.0291 52.4057 19.0291V26.96V26.9577ZM52.392 15.2666C54.1218 15.2666 55.7965 15.3836 57.446 15.2345C59.1368 15.0831 60.0659 13.8465 60.1164 12.0709C60.1669 10.3663 59.3089 9.03798 57.6685 8.85215C55.9479 8.65715 54.1906 8.80856 52.392 8.80856V15.2666Z" fill="white"/>
<path d="M136.918 26.9669C135.007 26.9669 133.367 27.0196 131.736 26.9279C131.343 26.9072 130.889 26.4782 130.616 26.1203C128.687 23.6059 126.76 21.0869 124.913 18.5129C124.273 17.6204 123.587 17.2052 122.382 17.5608V26.9233H117.677V4.75018H122.261V14.0943C123.256 14.4522 123.816 14.2411 124.38 13.4382C126.289 10.7196 128.276 8.05607 130.295 5.41778C130.582 5.04384 131.201 4.75706 131.683 4.72724C133.16 4.63777 134.647 4.69512 136.434 4.69512C133.564 8.36349 130.834 11.8529 128.047 15.418C130.953 19.2011 133.848 22.9727 136.916 26.9669H136.918Z" fill="white"/>
<path d="M84.5102 23.1654V26.8912H69.3435V4.77084H84.1134V8.67091H73.9227C73.9227 10.2837 73.8906 11.791 73.9663 13.2936C73.9755 13.4611 74.5926 13.725 74.9298 13.7295C77.4442 13.7663 79.9609 13.7502 82.5809 13.7502V17.6136H73.9892C73.9892 19.3273 73.9525 20.9516 74.0351 22.569C74.0466 22.7777 74.6729 23.115 75.0193 23.1218C77.6553 23.1769 80.2913 23.1631 82.9273 23.17C83.4182 23.17 83.9115 23.17 84.5102 23.17V23.1654Z" fill="white"/>
<path d="M180 4.80985V8.70533H173.099V26.937H168.339V8.74204H161.213V4.80985H180Z" fill="white"/>
</svg>
