<svg width="180" height="32" viewBox="0 0 180 32" fill="none" xmlns="http://www.w3.org/2000/svg">
<path d="M19.2567 31.2367C19.2566 31.2366 19.2564 31.2366 19.2562 31.2366C15.9686 31.2366 12.681 31.2329 9.39423 31.2429C9.08281 31.2438 8.86089 31.1675 8.63897 30.9368C6.39327 28.5972 4.13296 26.2712 1.87995 23.9379C1.33291 23.3711 0.784043 22.8053 0.26166 22.2167C0.124671 22.0623 0.00686105 21.8253 0.00686105 21.6264C-0.00501129 17.7972 -0.00135821 13.9671 0.0169069 10.1379C0.0178202 9.94446 0.139283 9.71104 0.278098 9.56481C2.14571 7.59936 4.02519 5.64662 5.90285 3.69025C6.86634 2.68573 7.82252 1.67485 8.80518 0.688486C8.92938 0.563148 9.18966 0.526818 9.38692 0.525909C12.6893 0.511377 15.9925 0.508653 19.2949 0.50502C20.5579 0.504111 21.8209 0.522276 23.084 0.501387C23.5232 0.494121 23.6858 0.649431 23.6748 1.08085C23.6529 1.92734 23.6465 2.77564 23.6666 3.62304C23.6767 4.05174 23.5324 4.19615 23.0885 4.19433C19.1159 4.17707 15.1441 4.18343 11.1714 4.17435C10.8481 4.17435 10.6262 4.26336 10.3888 4.50768C8.35403 6.60755 6.30286 8.69198 4.24255 10.7673C3.85715 11.1552 3.67359 11.5566 3.68089 12.1224C3.71286 14.71 3.70373 17.2986 3.68911 19.8871C3.68729 20.2476 3.77861 20.5265 4.02337 20.7799C5.49828 22.3048 6.97045 23.8316 8.44079 25.3611C9.05998 26.005 9.66181 26.6681 10.2974 27.2957C10.449 27.4446 10.7057 27.5681 10.9139 27.5681C16.4537 27.5818 21.9944 27.5818 27.5343 27.5645C27.7699 27.5645 28.0667 27.4346 28.2311 27.2657C30.3389 25.1095 32.4266 22.9342 34.5234 20.7672C34.7691 20.5129 34.8695 20.2422 34.8677 19.878C34.8504 17.2595 34.8494 14.641 34.8677 12.0225C34.8714 11.5457 34.717 11.1988 34.3883 10.8618C32.4722 8.90088 30.5681 6.92816 28.6722 4.94818C28.2018 4.45682 27.748 4.00451 26.9735 4.17889C26.6575 4.24973 26.5534 4.05719 26.5571 3.75474C26.5671 2.81652 26.5689 1.87829 26.5525 0.940071C26.547 0.620367 26.6776 0.506836 26.9808 0.510469C27.7717 0.519552 28.5635 0.509561 29.3544 0.532267C29.5023 0.536808 29.6813 0.624 29.7864 0.731174C31.2631 2.23069 32.7353 3.73476 34.1965 5.24972C35.5499 6.65387 36.8979 8.06438 38.2248 9.49306C38.3975 9.67834 38.5125 9.99169 38.5143 10.2469C38.5399 14.0452 38.5445 17.8444 38.5408 21.6436C38.5408 21.8226 38.4669 22.0469 38.3463 22.1722C35.5116 25.124 32.6686 28.0686 29.8119 30.9986C29.6685 31.1457 29.3845 31.2202 29.1663 31.2211C25.8647 31.2347 22.5623 31.2311 19.2608 31.2311C19.2594 31.2311 19.2583 31.2322 19.2583 31.2335V31.2357C19.2583 31.2365 19.2575 31.237 19.2567 31.2367Z" fill="#5CC76D"/>
<path d="M17.7212 21.0869C18.2167 21.0869 18.7113 21.0869 19.2068 21.0869C21.031 21.0887 22.8562 21.0969 24.6804 21.0805C24.8638 21.0787 25.091 20.9712 25.2215 20.8381C26.1232 19.9176 26.9992 18.9715 27.8972 18.0474C28.1582 17.7794 28.2823 17.5042 28.2622 17.1187C28.2239 16.3458 28.2586 15.5693 28.2166 14.7964C28.2029 14.5458 28.1052 14.2459 27.9401 14.0664C26.9956 13.0392 26.0228 12.0376 25.0472 11.0387C24.9578 10.9475 24.7826 10.9001 24.6475 10.9001C21.0593 10.8928 17.4702 10.8938 13.882 10.902C13.746 10.902 13.5708 10.9548 13.4805 11.0469C12.4639 12.0904 11.4555 13.1422 10.4608 14.2058C10.3404 14.3343 10.2573 14.5476 10.2528 14.7235C10.2318 15.5738 10.2199 16.4251 10.2582 17.2736C10.2701 17.5333 10.3869 17.8423 10.5612 18.0328C12.0368 19.6451 13.5425 21.2291 15.0264 22.8341C15.4681 23.3126 15.8705 23.8284 16.2821 24.3342C16.2899 24.3439 16.2974 24.3538 16.3046 24.3641C16.427 24.5382 16.2823 24.8091 16.0694 24.8091C14.8229 24.8091 13.5754 24.8136 12.3288 24.7936C12.1564 24.7909 11.9401 24.7034 11.8214 24.5803C10.1834 22.8924 8.55264 21.1963 6.93923 19.4856C6.78318 19.3197 6.67368 19.039 6.67094 18.8102C6.64812 16.9118 6.64812 15.0133 6.66546 13.1158C6.66729 12.9025 6.76676 12.64 6.91277 12.4851C8.43675 10.86 9.98263 9.25595 11.513 7.63639C11.8014 7.33107 12.1071 7.18433 12.5451 7.18433C17.0158 7.1898 21.4864 7.17886 25.9562 7.15425C26.4079 7.15152 26.7273 7.29826 27.0302 7.61907C28.5168 9.19671 30.0152 10.7643 31.5191 12.3247C31.7756 12.5908 31.8933 12.8505 31.8887 13.2406C31.8632 15.1081 31.8906 16.9765 31.8769 18.8439C31.875 19.0454 31.7838 19.2933 31.6469 19.4382C30.1366 21.0377 28.5971 22.6099 27.095 24.2176C26.7127 24.6268 26.3294 24.8164 25.7563 24.8027C24.3281 24.7681 22.8982 24.8018 21.4691 24.8191C21.1159 24.8237 20.8595 24.7289 20.604 24.4482C19.7462 23.5058 18.8427 22.6053 17.9639 21.6821C17.8547 21.568 17.7782 21.4219 17.6913 21.287C17.6759 21.263 17.6721 21.2333 17.6817 21.2065C17.6957 21.1678 17.7099 21.1288 17.7236 21.0903C17.7242 21.0887 17.723 21.0869 17.7212 21.0869Z" fill="#5CC76D"/>
<path d="M25.4644 15.8806C25.4644 15.8806 25.4643 15.8806 25.4642 15.8807C24.8466 16.5281 24.2643 17.1538 23.6585 17.757C23.5482 17.867 23.342 17.9329 23.1801 17.9338C20.574 17.9401 17.9679 17.9374 15.3618 17.9175C15.1801 17.9157 14.9594 17.803 14.8265 17.6723C13.8225 16.685 13.8177 15.0469 14.8042 14.0422C14.8306 14.0154 14.857 13.9885 14.8835 13.9617C14.982 13.8617 15.1801 13.8184 15.332 13.8175C17.9833 13.8067 20.6346 13.8021 23.285 13.8157C23.4505 13.8157 23.6494 13.9473 23.7742 14.0754C24.3383 14.6541 24.8816 15.2535 25.4647 15.88C25.4649 15.8802 25.4647 15.8806 25.4644 15.8806Z" fill="#5CC76D"/>
<path d="M88.8231 4.69038C90.2523 4.69038 91.5898 4.61697 92.9113 4.73627C93.299 4.77068 93.7716 5.29146 93.9781 5.70211C96.0612 9.82702 98.0938 13.9749 100.145 18.1158C100.262 18.3521 100.393 18.5838 100.622 19.0151C100.895 18.5104 101.113 18.1434 101.296 17.7625C103.251 13.7042 105.219 9.65036 107.135 5.57134C107.465 4.86933 107.867 4.63303 108.619 4.66974C109.828 4.73168 111.044 4.6858 112.32 4.6858V26.9116H107.906V13.4013C107.819 13.3738 107.729 13.3463 107.642 13.3187C107.144 14.3098 106.637 15.2963 106.153 16.2943C105.018 18.6297 103.866 20.956 102.783 23.3144C102.423 24.099 101.9 24.2229 101.106 24.3399C99.3487 24.5991 98.5136 23.8283 97.8323 22.3073C96.6003 19.5566 95.1733 16.893 93.8244 14.1951C93.6798 13.9083 93.5009 13.6399 93.143 13.4105V26.9162H88.8254V4.6835L88.8231 4.69038Z" fill="white"/>
<path d="M148.614 27.4026C141.722 27.3797 136.893 22.6032 136.929 15.8538C136.968 9.08602 141.759 4.37381 148.572 4.40134C155.434 4.42887 160.387 9.32691 160.344 16.0442C160.3 22.7432 155.462 27.4256 148.611 27.4026H148.614ZM141.791 16.1796C141.837 16.565 141.88 17.2142 141.997 17.8497C142.596 21.1005 145.092 23.2869 148.331 23.4222C151.741 23.5645 154.211 21.8003 155.124 18.4967C155.723 16.331 155.613 14.1791 154.634 12.1327C152.498 7.67281 146.108 7.06945 143.199 11.0498C142.146 12.4906 141.83 14.1699 141.791 16.1796Z" fill="white"/>
<path d="M52.4056 26.9575H47.7186V4.8441C47.8081 4.79822 47.9044 4.69957 48.0008 4.70187C51.4741 4.75693 54.9613 4.64221 58.414 4.93357C62.8279 5.30523 65.4341 8.76941 64.8927 13.1513C64.677 14.9086 63.8374 16.3241 62.3393 17.306C61.7726 17.6777 61.1761 18.0034 60.4787 18.4164C62.2636 21.2198 64.0186 23.9797 65.9296 26.9782C64.053 26.9782 62.3347 27.0057 60.621 26.9438C60.4007 26.9369 60.1529 26.4849 59.9901 26.1982C58.82 24.1426 57.6317 22.0939 56.5305 20.0016C56.1382 19.2537 55.6862 18.9303 54.842 19.0129C54.0918 19.0863 53.3278 19.0289 52.4056 19.0289V26.9598V26.9575ZM52.3918 15.2665C54.1216 15.2665 55.7963 15.3835 57.4458 15.2344C59.1366 15.083 60.0658 13.8464 60.1162 12.0707C60.1667 10.3662 59.3087 9.03783 57.6684 8.85201C55.9477 8.657 54.1904 8.80842 52.3918 8.80842V15.2665Z" fill="white"/>
<path d="M136.918 26.9667C135.007 26.9667 133.367 27.0195 131.735 26.9277C131.343 26.9071 130.889 26.4781 130.616 26.1202C128.686 23.6058 126.759 21.0868 124.913 18.5127C124.272 17.6203 123.587 17.205 122.382 17.5606V26.9231H117.677V4.75004H122.261V14.0942C123.256 14.4521 123.816 14.241 124.38 13.438C126.289 10.7194 128.276 8.05593 130.295 5.41764C130.581 5.04369 131.201 4.75692 131.683 4.72709C133.16 4.63762 134.647 4.69498 136.434 4.69498C133.564 8.36335 130.834 11.8528 128.046 15.4179C130.953 19.201 133.848 22.9726 136.916 26.9667H136.918Z" fill="white"/>
<path d="M84.5101 23.1653V26.891H69.3434V4.77069H84.1132V8.67077H73.9225C73.9225 10.2836 73.8904 11.7908 73.9661 13.2935C73.9753 13.461 74.5924 13.7248 74.9297 13.7294C77.4441 13.7661 79.9608 13.75 82.5807 13.75V17.6134H73.989C73.989 19.3272 73.9523 20.9514 74.0349 22.5688C74.0464 22.7776 74.6727 23.1148 75.0191 23.1217C77.6551 23.1768 80.2911 23.163 82.9271 23.1699C83.4181 23.1699 83.9113 23.1699 84.5101 23.1699V23.1653Z" fill="white"/>
<path d="M180 4.8097V8.70519H173.099V26.9369H168.339V8.74189H161.213V4.8097H180Z" fill="white"/>
</svg>
