<svg width="221" height="38" viewBox="0 0 221 38" fill="none" xmlns="http://www.w3.org/2000/svg">
<path d="M23.643 37.7364C23.6428 37.7363 23.6426 37.7363 23.6424 37.7363C19.6059 37.7363 15.5694 37.7318 11.534 37.7441C11.1517 37.7452 10.8792 37.6515 10.6067 37.3683C7.84951 34.4957 5.07435 31.6399 2.30816 28.7751C1.63652 28.0792 0.96263 27.3845 0.32126 26.6619C0.153069 26.4723 0.00842384 26.1813 0.00842384 25.9371C-0.00615275 21.2357 -0.00166758 16.5332 0.020758 11.8318C0.0218792 11.5943 0.171009 11.3077 0.341443 11.1282C2.63445 8.71503 4.94204 6.3175 7.24739 3.91551C8.43033 2.68218 9.60431 1.44104 10.8108 0.230014C10.9633 0.0761263 11.2829 0.0315211 11.5251 0.030406C15.5796 0.0125639 19.6353 0.00921852 23.6898 0.00475801C25.2405 0.00364288 26.7912 0.0259455 28.342 0.000297491C28.8813 -0.00862354 29.0809 0.182064 29.0674 0.71175C29.0405 1.75105 29.0327 2.79258 29.0573 3.833C29.0697 4.35934 28.8925 4.53664 28.3476 4.53441C23.47 4.51322 18.5936 4.52103 13.716 4.50988C13.3191 4.50988 13.0466 4.61916 12.7551 4.91913C10.2569 7.49731 7.73851 10.0565 5.20891 12.6046C4.73573 13.0808 4.51035 13.5736 4.51932 14.2684C4.55857 17.4454 4.54735 20.6235 4.52941 23.8016C4.52717 24.2443 4.6393 24.5867 4.9398 24.8978C6.75066 26.7701 8.55816 28.6446 10.3634 30.5225C11.1236 31.3131 11.8626 32.1272 12.643 32.8977C12.8291 33.0806 13.1442 33.2323 13.3998 33.2323C20.2015 33.249 27.0043 33.249 33.806 33.2278C34.0952 33.2278 34.4597 33.0683 34.6615 32.8609C37.2494 30.2136 39.8126 27.5429 42.3871 24.8822C42.6887 24.5699 42.812 24.2376 42.8098 23.7905C42.7885 20.5755 42.7874 17.3606 42.8098 14.1457C42.8143 13.5603 42.6248 13.1343 42.2211 12.7206C39.8687 10.313 37.5308 7.89095 35.2031 5.45997C34.6256 4.85668 34.0683 4.30135 33.1175 4.51545C32.7295 4.60243 32.6017 4.36603 32.6062 3.99469C32.6185 2.84276 32.6208 1.69083 32.6006 0.538905C32.5938 0.146379 32.7542 0.00698827 33.1265 0.0114488C34.0975 0.0226001 35.0696 0.0103337 36.0407 0.0382119C36.2223 0.0437875 36.4421 0.15084 36.571 0.282425C38.3841 2.1235 40.1916 3.97016 41.9857 5.83019C43.6474 7.55418 45.3024 9.28598 46.9316 11.0401C47.1435 11.2676 47.2848 11.6523 47.2871 11.9656C47.3185 16.6291 47.3241 21.2937 47.3196 25.9583C47.3196 26.1779 47.2288 26.4534 47.0807 26.6073C43.6003 30.2314 40.1098 33.8467 36.6024 37.4441C36.4264 37.6247 36.0777 37.7162 35.8097 37.7173C31.7561 37.734 27.7015 37.7296 23.6479 37.7296C23.6463 37.7296 23.6449 37.7309 23.6449 37.7326V37.7352C23.6449 37.7362 23.6439 37.7369 23.643 37.7364Z" fill="url(#paint0_linear_79_965)"/>
<path d="M21.7577 25.2747C22.3661 25.2747 22.9733 25.2747 23.5817 25.2747C25.8214 25.277 28.0623 25.2871 30.302 25.2669C30.5272 25.2647 30.8062 25.1326 30.9664 24.9693C32.0734 23.8391 33.149 22.6775 34.2515 21.5429C34.572 21.2139 34.7244 20.8759 34.6997 20.4026C34.6526 19.4537 34.6952 18.5003 34.6437 17.5514C34.6269 17.2437 34.507 16.8755 34.3042 16.6551C33.1446 15.3939 31.9502 14.1642 30.7524 12.9377C30.6426 12.8258 30.4275 12.7676 30.2617 12.7676C25.8562 12.7587 21.4495 12.7598 17.044 12.7699C16.8771 12.7699 16.662 12.8348 16.551 12.9478C15.3029 14.2291 14.0648 15.5204 12.8436 16.8263C12.6957 16.984 12.5937 17.2459 12.5881 17.4619C12.5623 18.5059 12.5478 19.551 12.5948 20.5928C12.6094 20.9117 12.7528 21.2911 12.9668 21.525C14.7785 23.5045 16.6272 25.4493 18.449 27.4199C18.9913 28.0073 19.4854 28.6407 19.9908 29.2618C20.0004 29.2736 20.0096 29.2858 20.0184 29.2984C20.1687 29.5122 19.991 29.8448 19.7297 29.8448C18.1992 29.8448 16.6676 29.8503 15.1371 29.8257C14.9253 29.8224 14.6598 29.7149 14.5141 29.5639C12.5029 27.4915 10.5007 25.409 8.51983 23.3087C8.32824 23.105 8.19379 22.7603 8.19043 22.4795C8.16242 20.1486 8.16242 17.8177 8.18371 15.4879C8.18595 15.2261 8.30807 14.9038 8.48734 14.7136C10.3585 12.7184 12.2565 10.749 14.1354 8.76049C14.4895 8.38563 14.8648 8.20547 15.4026 8.20547C20.8916 8.21218 26.3805 8.19875 31.8684 8.16854C32.423 8.16518 32.8151 8.34534 33.1871 8.73923C35.0123 10.6762 36.852 12.6009 38.6985 14.5166C39.0133 14.8434 39.1579 15.1623 39.1523 15.6412C39.1209 17.9341 39.1545 20.228 39.1377 22.5209C39.1355 22.7682 39.0234 23.0725 38.8554 23.2505C37.0011 25.2143 35.1109 27.1446 33.2667 29.1185C32.7972 29.621 32.3266 29.8537 31.623 29.8369C29.8696 29.7944 28.1138 29.8358 26.3593 29.8571C25.9256 29.8627 25.6108 29.7463 25.2971 29.4016C24.2439 28.2446 23.1347 27.139 22.0557 26.0055C21.9216 25.8654 21.8277 25.686 21.721 25.5204C21.7021 25.491 21.6974 25.4545 21.7092 25.4216C21.7264 25.3741 21.7438 25.3262 21.7606 25.279C21.7614 25.2769 21.7599 25.2747 21.7577 25.2747Z" fill="url(#paint1_linear_79_965)"/>
<path d="M31.2647 18.8825C31.2646 18.8825 31.2645 18.8826 31.2644 18.8826C30.5061 19.6775 29.7912 20.4458 29.0474 21.1864C28.9119 21.3214 28.6588 21.4023 28.46 21.4034C25.2603 21.4111 22.0606 21.4078 18.8609 21.3834C18.6377 21.3812 18.3668 21.2428 18.2036 21.0823C16.971 19.8702 16.965 17.8589 18.1762 16.6254C18.2086 16.5924 18.2411 16.5595 18.2736 16.5266C18.3946 16.4037 18.6377 16.3506 18.8243 16.3495C22.0795 16.3362 25.3347 16.3307 28.5888 16.3473C28.792 16.3473 29.0363 16.5089 29.1895 16.6661C29.882 17.3767 30.5491 18.1127 31.265 18.8818C31.2652 18.8821 31.265 18.8825 31.2647 18.8825Z" fill="url(#paint2_linear_79_965)"/>
<path d="M109.055 5.1436C110.81 5.1436 112.452 5.05347 114.074 5.19994C114.55 5.24219 115.131 5.88158 115.384 6.38578C117.942 11.4502 120.437 16.5429 122.956 21.6271C123.099 21.9172 123.26 22.2017 123.541 22.7312C123.877 22.1115 124.144 21.6609 124.37 21.1933C126.769 16.2105 129.186 11.2334 131.538 6.22522C131.944 5.3633 132.437 5.07318 133.361 5.11825C134.845 5.1943 136.338 5.13797 137.904 5.13797V32.4264H132.485V15.8387C132.377 15.8049 132.268 15.7711 132.161 15.7373C131.549 16.9541 130.927 18.1653 130.333 19.3906C128.938 22.258 127.524 25.1142 126.195 28.0098C125.753 28.9731 125.11 29.1252 124.136 29.2688C121.978 29.5871 120.953 28.6407 120.116 26.7732C118.604 23.396 116.852 20.1258 115.195 16.8133C115.018 16.4612 114.798 16.1316 114.359 15.85V32.432H109.058V5.13515L109.055 5.1436Z" fill="white"/>
<path d="M182.465 33.0292C174.003 33.001 168.074 27.1366 168.119 18.8498C168.167 10.5405 174.048 4.75492 182.414 4.78872C190.839 4.82252 196.92 10.8362 196.866 19.0836C196.813 27.3084 190.872 33.0573 182.462 33.0292H182.465ZM174.088 19.2498C174.144 19.723 174.197 20.5201 174.341 21.3003C175.076 25.2916 178.141 27.976 182.118 28.1422C186.304 28.3168 189.337 26.1507 190.458 22.0947C191.194 19.4357 191.058 16.7936 189.856 14.2811C187.233 8.80536 179.389 8.06456 175.817 12.9516C174.524 14.7205 174.135 16.7823 174.088 19.2498Z" fill="white"/>
<path d="M64.3424 32.4827H58.5878V5.33233C58.6977 5.276 58.816 5.15488 58.9343 5.1577C63.1988 5.2253 67.4802 5.08446 71.7194 5.44218C77.1388 5.89849 80.3386 10.1517 79.6738 15.5317C79.409 17.6893 78.3781 19.4272 76.5388 20.6328C75.8431 21.0891 75.1107 21.4891 74.2544 21.9961C76.4458 25.4381 78.6006 28.8266 80.947 32.5081C78.6429 32.5081 76.5332 32.5419 74.4291 32.4658C74.1587 32.4574 73.8545 31.9025 73.6545 31.5504C72.2179 29.0266 70.7589 26.5113 69.4069 23.9424C68.9252 23.0242 68.3703 22.627 67.3338 22.7284C66.4127 22.8185 65.4747 22.7481 64.3424 22.7481V32.4855V32.4827ZM64.3255 18.1287C66.4493 18.1287 68.5055 18.2724 70.5307 18.0893C72.6067 17.9034 73.7474 16.3852 73.8094 14.205C73.8714 12.1122 72.8179 10.4813 70.804 10.2531C68.6914 10.0137 66.5338 10.1996 64.3255 10.1996V18.1287Z" fill="white"/>
<path d="M168.105 32.494C165.758 32.494 163.745 32.5588 161.742 32.4461C161.26 32.4207 160.702 31.894 160.367 31.4546C157.998 28.3675 155.632 25.2747 153.365 22.1144C152.579 21.0186 151.737 20.5088 150.258 20.9454V32.4405H144.481V5.21684H150.109V16.6894C151.331 17.1288 152.018 16.8696 152.711 15.8838C155.055 12.546 157.494 9.27574 159.973 6.03651C160.325 5.57738 161.086 5.22529 161.677 5.18867C163.491 5.07882 165.316 5.14924 167.51 5.14924C163.987 9.65318 160.635 13.9374 157.213 18.3146C160.781 22.9594 164.336 27.5901 168.102 32.494H168.105Z" fill="white"/>
<path d="M103.76 27.8267V32.401H85.1383V5.2422H103.272V10.0306H90.7604C90.7604 12.0108 90.721 13.8614 90.814 15.7063C90.8252 15.9119 91.5829 16.2359 91.997 16.2415C95.0841 16.2866 98.174 16.2669 101.391 16.2669V21.0102H90.8421C90.8421 23.1143 90.7971 25.1085 90.8985 27.0943C90.9125 27.3507 91.6815 27.7647 92.1068 27.7732C95.3432 27.8408 98.5797 27.8239 101.816 27.8323C102.419 27.8323 103.024 27.8323 103.76 27.8323V27.8267Z" fill="white"/>
<path d="M221 5.2901V10.0729H212.527V32.4574H206.683V10.118H197.934V5.2901H221Z" fill="white"/>
<defs>
<linearGradient id="paint0_linear_79_965" x1="23.6605" y1="0" x2="23.6605" y2="37.7441" gradientUnits="userSpaceOnUse">
<stop stop-color="#5CC76D"/>
<stop offset="1" stop-color="#5CC7C1"/>
</linearGradient>
<linearGradient id="paint1_linear_79_965" x1="23.6605" y1="0" x2="23.6605" y2="37.7441" gradientUnits="userSpaceOnUse">
<stop stop-color="#5CC76D"/>
<stop offset="1" stop-color="#5CC7C1"/>
</linearGradient>
<linearGradient id="paint2_linear_79_965" x1="23.6605" y1="0" x2="23.6605" y2="37.7441" gradientUnits="userSpaceOnUse">
<stop stop-color="#5CC76D"/>
<stop offset="1" stop-color="#5CC7C1"/>
</linearGradient>
</defs>
</svg>
