<svg width="32" height="32" viewBox="0 0 32 32" fill="none" xmlns="http://www.w3.org/2000/svg">
<path d="M21.7394 19H25.7942C27.1063 19 28.2662 19.8527 28.6576 21.1052L30.8369 28.0789C31.2896 29.5277 30.2072 31 28.6893 31H3.31016C1.79222 31 0.709819 29.5277 1.16258 28.0789L3.34187 21.1052C3.73325 19.8527 4.89315 19 6.20531 19H10.26M21.7394 19C23.5652 16.3165 24.9997 13.442 24.9997 10.6621C24.9997 5.32589 20.9703 1 15.9997 1C11.0292 1 6.99973 5.32589 6.99973 10.6621C6.99973 13.442 8.43431 16.3165 10.26 19M21.7394 19C20.5047 20.8148 19.0911 22.5422 17.8214 24.0938L17.7803 24.1441C16.8464 25.2853 15.1531 25.2853 14.2192 24.1441L14.1781 24.0938C12.9083 22.5422 11.4947 20.8148 10.26 19M18.9997 10C18.9997 11.6569 17.6566 13 15.9997 13C14.3429 13 12.9997 11.6569 12.9997 10C12.9997 8.34315 14.3429 7 15.9997 7C17.6566 7 18.9997 8.34315 18.9997 10Z" stroke="#5CC76D" stroke-width="2" stroke-linecap="round" stroke-linejoin="round"/>
</svg>
