<svg width="221" height="37" viewBox="0 0 221 37" fill="none" xmlns="http://www.w3.org/2000/svg">
<g clip-path="url(#clip0_21_1811)">
<path d="M29.3508 35.7415L9.08216 13.8158V35.7415H-0.0078125V1.24731H8.48062L28.092 22.4845V1.24731H37.182V35.7415H29.3508Z" fill="white"/>
<path d="M213.159 35.7415L192.891 13.8158V35.7415H183.801V1.24731H192.295L211.901 22.4845V1.24731H220.991V35.7415H213.159Z" fill="white"/>
<path d="M105.25 35.7415H97.5585L81.5508 1.24731H91.1643L101.519 25.3684L111.867 1.24731H121.258L105.25 35.7415Z" fill="white"/>
<path d="M134.035 1.24731H124.906V35.7415H134.035V1.24731Z" fill="white"/>
<path d="M52.6118 11.6768H43.4216C43.973 9.10326 45.2707 5.93716 47.6268 3.87157C51.0467 0.874771 55.3744 0 61.4456 0C67.5167 0 72.4961 0.914277 75.9216 3.87157C78.5115 6.10647 80.6225 9.3403 80.6392 13.6464V35.7415H71.5102V32.5923C70.8474 32.914 69.6444 34.0653 66.0908 35.4875C63.2168 36.6332 60.1199 37 56.455 37C52.0604 37 49.2866 35.4706 46.7579 33.6364C44.1512 31.7344 42.6641 28.5627 42.6641 25.3119C42.6641 21.3726 43.4494 18.6354 47.326 16.79C50.8684 15.1081 55.1294 14.7977 60.6658 14.7977H71.5102C71.5102 10.407 68.8924 5.83557 61.6238 5.83557C56.5274 5.83557 53.8539 8.80415 52.6118 11.6711M61.2952 20.3681C56.0038 20.4527 51.6037 21.7169 51.793 24.8661C52.0604 29.3528 56.5831 29.7704 58.5102 29.7704C63.3504 29.7704 66.904 28.8844 68.9258 27.2421C71.1037 25.47 71.1928 22.9642 71.2095 20.3624C71.2095 20.3624 63.5677 20.3286 61.2952 20.3624" fill="white"/>
<path d="M158.9 30.679C152.634 30.679 148.83 27.0332 148.34 22.1909C148.34 22.1909 148.228 21.3162 148.217 20.6389H178.779C178.779 14.3293 177.136 9.36849 173.922 5.84119C170.396 1.90189 165.305 0.00561523 158.644 0.00561523C152.612 0.00561523 147.833 1.77209 144.385 5.36712C140.781 8.90006 139.055 13.2401 139.055 18.4718C139.055 24.3073 140.937 28.8618 144.697 32.1859C148.223 35.3746 153.002 37.0056 159.034 37.0056C164.442 37.0056 168.903 35.6511 172.507 32.9986C175.325 30.8258 177.208 28.0434 178.149 24.7814H169.009C167.622 28.2748 163.98 30.679 158.894 30.679M158.894 6.31526C165.161 6.31526 168.965 9.96108 169.455 14.8034H148.34C148.83 9.96108 152.628 6.31526 158.9 6.31526" fill="white"/>
</g>
<defs>
<clipPath id="clip0_21_1811">
<rect width="221" height="37" fill="white" transform="translate(-0.0078125)"/>
</clipPath>
</defs>
</svg>
