<svg width="32" height="32" viewBox="0 0 32 32" fill="none" xmlns="http://www.w3.org/2000/svg">
<path d="M9.52892 9.20927V4.62375C9.52892 4.40602 9.4437 4.19722 9.29201 4.04326L6.5303 1.24044C6.37861 1.08649 6.17286 1 5.95833 1H2.24896C1.80223 1 1.44008 1.36754 1.44008 1.82093V5.58552C1.44008 5.80325 1.5253 6.01205 1.677 6.16601L4.4387 8.96883C4.5904 9.12278 4.79614 9.20927 5.01067 9.20927H9.52892ZM9.52892 9.20927L13.9556 13.7019M16 19.8574L5.85364 30.1549C4.7433 31.2817 2.94309 31.2817 1.83275 30.1549C0.722415 29.028 0.722416 27.201 1.83275 26.0741L13.6048 14.1268C13.7357 13.994 13.8523 13.8518 13.9556 13.7019M16 19.8574L17.6257 18.2075C18.5778 17.2413 20.0162 17.0403 21.3486 17.2373C21.3915 17.2437 21.4346 17.2497 21.4778 17.2553M16 19.8574L26.1464 30.1549C27.2567 31.2817 29.0569 31.2817 30.1672 30.1549C31.2776 29.028 31.2776 27.201 30.1672 26.0741L21.4778 17.2553M21.4778 17.2553C21.8184 17.3 22.1656 17.323 22.5182 17.323C26.9595 17.323 30.5599 13.669 30.5599 9.16149C30.5599 8.38251 30.4524 7.62902 30.2516 6.91547C30.0963 6.36369 29.422 6.23561 29.0222 6.64138L26.8741 8.82143C25.7638 9.9483 23.9636 9.9483 22.8532 8.82143C21.7429 7.69457 21.7429 5.86755 22.8532 4.74068L25.0013 2.56063C25.4011 2.15486 25.2749 1.47055 24.7312 1.31294C24.0281 1.10913 23.2857 1 22.5182 1C18.0768 1 14.4764 4.65403 14.4764 9.16149C14.4764 9.56465 14.5052 9.96099 14.5608 10.3485C14.7283 11.5148 14.6039 12.7612 13.9556 13.7019" stroke="#5CC76D" stroke-width="2" stroke-linecap="round"/>
</svg>
