<svg width="33" height="32" viewBox="0 0 33 32" fill="none" xmlns="http://www.w3.org/2000/svg">
<rect x="0.5" width="32" height="32" rx="16" fill="white"/>
<path d="M22.8415 9.65019C21.261 8.07519 19.1537 7.2002 16.9293 7.2002C12.3049 7.2002 8.55854 10.9335 8.55854 15.5419C8.55854 17.0002 8.96829 18.4585 9.67073 19.6835L8.5 24.0002L12.9488 22.8335C14.178 23.4752 15.5244 23.8252 16.9293 23.8252C21.5537 23.8252 25.3 20.0919 25.3 15.4835C25.2415 13.3252 24.4219 11.2252 22.8415 9.65019ZM20.9683 18.5169C20.7927 18.9835 19.9732 19.4502 19.5634 19.5085C19.2122 19.5669 18.7439 19.5669 18.2756 19.4502C17.9829 19.3335 17.5732 19.2169 17.1049 18.9835C14.9976 18.1085 13.6512 16.0085 13.5341 15.8335C13.4171 15.7169 12.6561 14.7252 12.6561 13.6752C12.6561 12.6252 13.1829 12.1585 13.3585 11.9252C13.5341 11.6919 13.7683 11.6919 13.9439 11.6919C14.061 11.6919 14.2366 11.6919 14.3537 11.6919C14.4707 11.6919 14.6463 11.6335 14.822 12.0419C14.9976 12.4502 15.4073 13.5002 15.4659 13.5585C15.5244 13.6752 15.5244 13.7919 15.4659 13.9085C15.4073 14.0252 15.3488 14.1419 15.2317 14.2585C15.1146 14.3752 14.9976 14.5502 14.939 14.6085C14.8219 14.7252 14.7049 14.8419 14.822 15.0169C14.939 15.2502 15.3488 15.8919 15.9927 16.4752C16.8122 17.1752 17.4561 17.4085 17.6902 17.5252C17.9244 17.6419 18.0415 17.5835 18.1585 17.4669C18.2756 17.3502 18.6854 16.8835 18.8024 16.6502C18.9195 16.4169 19.0951 16.4752 19.2707 16.5335C19.4463 16.5919 20.5 17.1169 20.6756 17.2335C20.9098 17.3502 21.0268 17.4085 21.0854 17.4669C21.1439 17.6419 21.1439 18.0502 20.9683 18.5169Z" fill="#5CC76D"/>
</svg>
