<svg width="18" height="17" viewBox="0 0 18 17" fill="none" xmlns="http://www.w3.org/2000/svg">
<path d="M14.8415 2.65019C13.261 1.07519 11.1537 0.200195 8.92927 0.200195C4.30488 0.200195 0.558536 3.93353 0.558536 8.54186C0.558536 10.0002 0.968293 11.4585 1.67073 12.6835L0.5 17.0002L4.94878 15.8335C6.17805 16.4752 7.52439 16.8252 8.92927 16.8252C13.5537 16.8252 17.3 13.0919 17.3 8.48353C17.2415 6.3252 16.4219 4.22519 14.8415 2.65019ZM12.9683 11.5169C12.7927 11.9835 11.9732 12.4502 11.5634 12.5085C11.2122 12.5669 10.7439 12.5669 10.2756 12.4502C9.98293 12.3335 9.57317 12.2169 9.10488 11.9835C6.99756 11.1085 5.65122 9.00853 5.53415 8.83353C5.41707 8.71686 4.6561 7.72519 4.6561 6.67519C4.6561 5.62519 5.18293 5.15853 5.35854 4.92519C5.53415 4.69186 5.76829 4.69186 5.9439 4.69186C6.06097 4.69186 6.23658 4.69186 6.35366 4.69186C6.47073 4.69186 6.64634 4.63353 6.82195 5.04186C6.99756 5.45019 7.40732 6.50019 7.46585 6.55853C7.52439 6.67519 7.52439 6.79186 7.46585 6.90853C7.40732 7.0252 7.34878 7.14186 7.2317 7.25853C7.11463 7.37519 6.99756 7.55019 6.93902 7.60853C6.82195 7.72519 6.70488 7.84186 6.82195 8.01686C6.93902 8.25019 7.34878 8.89186 7.99268 9.47519C8.81219 10.1752 9.4561 10.4085 9.69024 10.5252C9.92439 10.6419 10.0415 10.5835 10.1585 10.4669C10.2756 10.3502 10.6854 9.88353 10.8024 9.6502C10.9195 9.41686 11.0951 9.47519 11.2707 9.53353C11.4463 9.59186 12.5 10.1169 12.6756 10.2335C12.9098 10.3502 13.0268 10.4085 13.0854 10.4669C13.1439 10.6419 13.1439 11.0502 12.9683 11.5169Z" fill="#5CC76D"/>
</svg>
