<svg width="32" height="32" viewBox="0 0 32 32" fill="none" xmlns="http://www.w3.org/2000/svg">
<path d="M21 1C26.5228 1 31 5.47715 31 11M24.8822 10.1667C24.38 8.74598 23.254 7.61998 21.8333 7.11784M29.5232 27.4346C27.6756 29.2821 25.8799 31 23.0613 31C19.6595 31 16.8043 29.6516 14.0488 27.8145C10.1421 25.2101 6.78989 21.8579 4.18546 17.9512C2.34844 15.1957 1 12.3405 1 8.93866C1 6.12014 2.71786 4.32437 4.5654 2.47683C7.5584 -0.516172 10.8269 1.60754 13.1896 3.97024C14.3339 5.11457 14.3339 6.96989 13.1896 8.11422C11.9585 9.34535 12.3166 10.8485 13.0001 12.2155C14.4681 15.1514 16.8486 17.5319 19.7845 18.9999C21.1515 19.6834 22.6547 20.0415 23.8858 18.8104C25.0301 17.6661 26.8854 17.6661 28.0298 18.8104C30.3925 21.1731 32.5162 24.4416 29.5232 27.4346Z" stroke="#5CC76D" stroke-width="2" stroke-linecap="round" stroke-linejoin="round"/>
</svg>
