<svg width="180" height="32" viewBox="0 0 180 32" fill="none" xmlns="http://www.w3.org/2000/svg">
<path fill-rule="evenodd" clip-rule="evenodd" d="M7.61416 6.57272V25.0237H9.60468C14.6073 25.0237 15.4009 22.6411 15.4359 15.8622C15.4732 8.71011 14.6161 6.57272 9.43589 6.57272H7.61416ZM41.6262 19.1041L38.9671 9.23089L36.3715 19.1041H41.6262ZM25.4587 31.3859L34.986 0.609751H42.9766L52.4864 31.3859H44.6602L43.0906 25.1929H34.8676L33.3112 31.3859H25.4609H25.4587ZM159.959 15.8101C159.959 19.6965 160.36 22.3503 161.152 23.7738C161.943 25.1951 163.331 25.9133 165.31 25.9133C167.29 25.9133 168.647 25.2059 169.427 23.7998C170.206 22.3959 170.591 19.7312 170.591 15.8101C170.591 11.8891 170.203 9.2157 169.427 7.8009C168.649 6.38611 167.275 5.67871 165.31 5.67871C163.346 5.67871 161.943 6.39696 161.152 7.82694C160.358 9.26127 159.959 11.9238 159.959 15.8101ZM151.458 16.0163C151.458 10.9278 152.668 6.99369 155.086 4.19448C157.513 1.39526 160.917 0 165.297 0C169.677 0 173.055 1.39526 175.465 4.18797C177.867 6.97199 179.066 10.9169 179.066 16.0184C179.066 21.12 177.865 25.0432 175.473 27.8272C173.082 30.6112 169.686 32 165.297 32C160.908 32 157.486 30.6047 155.077 27.812C152.668 25.028 151.458 21.0917 151.458 16.0184V16.0163ZM127.981 15.8101C127.981 19.6965 128.383 22.3503 129.174 23.7738C129.965 25.1951 131.355 25.9133 133.333 25.9133C135.31 25.9133 136.669 25.2059 137.45 23.7998C138.228 22.3959 138.614 19.7312 138.614 15.8101C138.614 11.8891 138.226 9.2157 137.45 7.8009C136.671 6.38611 135.297 5.67871 133.333 5.67871C131.368 5.67871 129.965 6.39696 129.174 7.82694C128.383 9.26127 127.981 11.9238 127.981 15.8101ZM119.48 16.0163C119.48 10.9278 120.69 6.99369 123.108 4.19448C125.535 1.39526 128.939 0 133.32 0C137.7 0 141.078 1.39526 143.487 4.18797C145.89 6.97199 147.089 10.9169 147.089 16.0184C147.089 21.12 145.887 25.0432 143.496 27.8272C141.104 30.6112 137.708 32 133.32 32C128.931 32 125.509 30.6047 123.099 27.812C120.69 25.028 119.48 21.0917 119.48 16.0184V16.0163ZM79.2795 0.609751H86.9697L90.6417 20.1305L94.4978 0.609751H102.758L106.491 20.2151L109.988 0.609751H117.49L109.942 31.3859H101.778L98.6257 11.6395L95.0765 31.3859H86.4349L79.2839 0.609751H79.2795ZM57.1733 31.3859V0.609751H74.8249V6.90472H65.0828V12.8525H72.8848V18.2209H65.0828V25.0931H75.9605V31.3859H57.1733ZM0.0685981 0.609751H8.18633C18.3691 0.609751 23.6041 2.64732 23.6041 16.0163C23.6041 26.0023 19.5639 31.3859 10.2163 31.3859H0.0664062V0.609751H0.0685981Z" fill="white"/>
</svg>
