<svg width="209" height="24" viewBox="0 0 209 24" fill="none" xmlns="http://www.w3.org/2000/svg">
<g clip-path="url(#clip0_21_1825)">
<path d="M180.927 23.0516C180.927 22.9324 180.927 22.839 180.927 22.7455C180.927 20.6403 180.928 18.5359 180.928 16.4308C180.928 11.9065 180.927 7.38224 180.927 2.85798C180.927 2.47121 181.008 2.10655 181.213 1.77116C181.447 1.38795 181.798 1.16388 182.23 1.05541C182.477 0.993329 182.728 0.970494 182.983 0.971208C184.342 0.975489 185.702 0.979057 187.062 0.971921C188.34 0.964785 189.287 1.73405 189.675 2.76735C190.118 3.95123 190.53 5.14652 190.956 6.33681C191.323 7.35941 191.691 8.38058 192.057 9.40318C192.389 10.3309 192.718 11.2593 193.05 12.187C193.409 13.1874 193.768 14.1872 194.128 15.187C194.141 15.2241 194.16 15.259 194.194 15.3347C194.25 15.2134 194.296 15.1277 194.331 15.0371C194.675 14.1387 195.018 13.2395 195.362 12.3418C195.729 11.3884 196.097 10.4358 196.464 9.48239C196.904 8.34133 197.347 7.20027 197.785 6.05851C198.127 5.16578 198.46 4.27021 198.808 3.37963C198.969 2.96574 199.107 2.54043 199.368 2.16864C199.707 1.68767 200.133 1.31374 200.698 1.11678C200.959 1.02616 201.233 0.973348 201.514 0.973348C203.079 0.973348 204.644 0.971208 206.209 0.975489C206.525 0.976203 206.838 1.02901 207.12 1.17601C207.724 1.49 208.013 2.00808 208.056 2.66103C208.078 3.00356 208.063 3.34823 208.063 3.69219C208.063 9.88843 208.063 16.0847 208.063 22.2809C208.063 22.4764 208.061 22.672 208.059 22.8682C208.059 22.9203 208.052 22.9724 208.049 23.0195C207.896 23.0623 201.887 23.0816 201.575 23.0409C201.569 22.9645 201.559 22.8839 201.559 22.8033C201.559 20.8523 201.561 18.902 201.561 16.951C201.561 13.8083 201.56 10.6655 201.559 7.52282C201.559 7.25023 201.563 6.97763 201.562 6.70432C201.562 6.6351 201.555 6.56588 201.522 6.4881C201.503 6.52663 201.479 6.56445 201.463 6.60441C201.032 7.71693 200.601 8.83015 200.172 9.94338C199.787 10.9403 199.405 11.9386 199.02 12.9355C198.638 13.9274 198.253 14.9179 197.87 15.9091C197.581 16.6563 197.296 17.4048 197.007 18.1527C196.67 19.0219 196.334 19.891 195.992 20.7581C195.82 21.1941 195.652 21.6337 195.45 22.0561C195.264 22.4443 194.982 22.7633 194.563 22.931C194.442 22.9795 194.308 23.0145 194.178 23.0195C193.653 23.0395 193.128 23.0459 192.602 23.0566C192.433 23.0602 192.263 23.0559 192.094 23.0623C191.803 23.073 191.55 22.9738 191.32 22.8076C190.995 22.5721 190.77 22.2538 190.612 21.8984C190.392 21.4046 190.194 20.9015 189.997 20.3984C189.665 19.5528 189.34 18.7043 189.016 17.8558C188.713 17.063 188.414 16.2681 188.111 15.4745C187.665 14.3042 187.218 13.1339 186.772 11.9636C186.414 11.0259 186.058 10.0875 185.7 9.14985C185.444 8.47834 185.187 7.80755 184.931 7.13676C184.891 7.03186 184.857 6.92554 184.814 6.80208C184.747 6.90698 184.76 7.0076 184.76 7.10394C184.762 7.95741 184.767 8.8116 184.767 9.66507C184.768 13.9995 184.767 18.334 184.767 22.6684C184.767 22.7854 184.749 22.9032 184.741 23.0202C184.623 23.0302 184.506 23.0495 184.388 23.0495C183.312 23.0516 182.237 23.0495 181.162 23.0495C181.096 23.0495 181.03 23.0495 180.926 23.0495L180.927 23.0516Z" fill="white"/>
<path d="M175.498 19.425C176.848 20.868 178.194 22.3073 179.547 23.7538C179.458 23.8209 179.365 23.8002 179.279 23.8002C178.548 23.8009 177.817 23.7987 177.086 23.7987C175.654 23.7973 174.222 23.7952 172.789 23.7987C172.63 23.7987 172.517 23.7552 172.411 23.6382C172.119 23.3142 171.816 23.0002 171.515 22.6827C171.381 22.5414 171.378 22.5385 171.194 22.622C170.363 22.9981 169.5 23.2807 168.603 23.4605C167.928 23.5961 167.245 23.6753 166.558 23.7288C165.641 23.8002 164.723 23.8144 163.805 23.7588C163.137 23.7188 162.472 23.6318 161.805 23.564C161.222 23.5047 160.646 23.3941 160.083 23.2371C159.126 22.9717 158.207 22.6149 157.371 22.0747C156.642 21.6037 156.013 21.0264 155.507 20.3285C155.068 19.7233 154.827 19.0383 154.707 18.3083C154.639 17.8979 154.599 17.4862 154.602 17.0701C154.608 15.9583 154.948 14.9493 155.575 14.0295C155.848 13.6291 156.143 13.2452 156.502 12.917C157.127 12.3461 157.797 11.8358 158.561 11.4476C159.141 11.1529 159.732 10.8867 160.347 10.6712C160.404 10.6513 160.459 10.6256 160.514 10.6013C160.523 10.597 160.529 10.5842 160.546 10.5628C160.521 10.5307 160.496 10.4928 160.465 10.4614C159.975 9.97761 159.477 9.50235 158.998 9.00925C158.456 8.45264 158.01 7.82681 157.664 7.13532C157.243 6.29541 157.122 5.40982 157.26 4.48784C157.313 4.12961 157.389 3.77852 157.521 3.43741C157.66 3.07776 157.862 2.75735 158.092 2.45264C158.62 1.75616 159.312 1.26448 160.103 0.890554C160.855 0.535178 161.646 0.308965 162.466 0.178375C163.622 -0.00573515 164.783 -0.0564012 165.95 0.0691935C166.697 0.149831 167.433 0.279707 168.144 0.518765C168.81 0.742838 169.442 1.04398 169.991 1.48285C170.763 2.10083 171.353 2.84512 171.565 3.82562C171.765 4.75402 171.695 5.66886 171.335 6.54945C171.126 7.06039 170.786 7.49641 170.395 7.89032C169.78 8.51258 169.062 9.00211 168.287 9.41244C167.777 9.68289 167.266 9.9505 166.755 10.2195C166.719 10.2388 166.686 10.2631 166.628 10.2987C168.226 11.9636 169.834 13.602 171.458 15.2854C171.69 14.5961 171.809 13.9338 171.88 13.2652C171.95 12.5944 171.985 11.9193 172.037 11.22C172.078 11.2157 172.14 11.205 172.203 11.2043C172.644 11.2022 173.085 11.2007 173.526 11.2007C174.91 11.2007 176.293 11.2007 177.677 11.2022C177.743 11.2022 177.807 11.2079 177.899 11.2122C177.899 11.2878 177.902 11.3506 177.899 11.4127C177.864 11.9093 177.844 12.4074 177.787 12.9013C177.723 13.4536 177.643 14.0059 177.54 14.5525C177.408 15.2512 177.228 15.9384 176.972 16.607C176.666 17.4091 176.296 18.1777 175.834 18.9041C175.726 19.074 175.615 19.2424 175.499 19.4222L175.498 19.425ZM162.466 12.9912C162.392 13.0747 162.331 13.1389 162.275 13.2088C162.106 13.4243 161.932 13.637 161.771 13.8589C161.478 14.2664 161.227 14.7003 161.057 15.172C160.808 15.8577 160.731 16.5635 160.813 17.2892C160.932 18.3389 161.389 19.2267 162.142 19.9674C162.883 20.6967 163.813 21.0321 164.833 21.1513C165.522 21.2319 166.207 21.1962 166.878 21.0021C167.521 20.8159 168.101 20.5276 168.546 20.0188C168.744 19.7926 168.747 19.789 168.546 19.5663C168.136 19.1146 167.725 18.6651 167.31 18.2183C166.277 17.1051 165.242 15.994 164.21 14.8808C163.637 14.2628 163.068 13.6427 162.466 12.9905V12.9912ZM166.658 4.35797C166.65 4.21596 166.647 4.07324 166.633 3.93194C166.576 3.39888 166.343 2.95787 165.902 2.63532C165.35 2.23071 164.723 2.22072 164.084 2.33632C163.892 2.37129 163.699 2.44693 163.528 2.54255C163.025 2.82371 162.743 3.269 162.635 3.81848C162.525 4.38294 162.629 4.93099 162.841 5.45478C163.198 6.34393 163.779 7.09179 164.433 7.78898C164.535 7.89745 164.58 7.8946 164.692 7.80397C165.266 7.34084 165.744 6.79208 166.134 6.17409C166.483 5.62105 166.707 5.0259 166.658 4.35797Z" fill="white"/>
<path d="M33.9413 0.0235408C34.6014 0.0292496 35.2594 0.0513714 35.9144 0.122018C36.8095 0.218355 37.6952 0.365358 38.562 0.612979C40.0447 1.03543 41.4106 1.69052 42.6502 2.59252C43.4351 3.16412 44.1213 3.83705 44.7125 4.60347C45.1963 5.23001 45.6076 5.89866 45.9391 6.61298C46.3286 7.45147 46.6057 8.32706 46.7979 9.22977C46.9169 9.78781 46.9996 10.3501 47.0431 10.9175C47.0982 11.6275 47.1135 12.339 47.0344 13.0483C46.9865 13.4779 46.9416 13.9082 46.869 14.3342C46.811 14.6782 46.7211 15.0171 46.634 15.3554C46.457 16.0404 46.1973 16.6977 45.8912 17.3356C45.5662 18.0128 45.1695 18.6487 44.7081 19.2467C44.1329 19.9938 43.4714 20.6575 42.722 21.2355C42.0656 21.7421 41.362 22.1774 40.6141 22.5464C39.8561 22.9203 39.0719 23.2264 38.2588 23.4577C37.8598 23.5711 37.4493 23.6475 37.0416 23.7274C36.449 23.8437 35.8484 23.9022 35.2463 23.9493C34.4796 24.0093 33.7128 24.0128 32.9461 23.9722C31.7434 23.9079 30.5524 23.7517 29.3968 23.4091C27.6044 22.8775 25.9774 22.0419 24.5767 20.8109C23.6881 20.0302 22.9475 19.1289 22.3607 18.1063C21.6317 16.8361 21.1848 15.4745 20.9549 14.0388C20.8069 13.1154 20.7677 12.1855 20.8171 11.255C20.8664 10.318 21.0129 9.39319 21.2654 8.48691C21.5403 7.49928 21.9167 6.55232 22.4477 5.66817C23.0382 4.68553 23.7708 3.81707 24.6449 3.0635C25.1824 2.59966 25.7605 2.19076 26.38 1.84395C27.2679 1.34657 28.1978 0.938384 29.1821 0.651514C30.1643 0.365358 31.1668 0.185529 32.1852 0.0998966C32.7684 0.0506578 33.3552 0.0470898 33.9406 0.0228271L33.9413 0.0235408ZM27.1155 11.9929C27.1155 12.9676 27.204 13.9324 27.4166 14.8872C27.6429 15.8998 27.9686 16.8775 28.464 17.793C29.0051 18.7928 29.6957 19.6763 30.6285 20.3627C31.3662 20.9058 32.1801 21.269 33.0963 21.4075C33.451 21.461 33.8071 21.4503 34.1626 21.4481C35.0475 21.4431 35.8687 21.1998 36.6289 20.7709C37.6299 20.2065 38.3944 19.3994 39.011 18.4517C39.373 17.8958 39.6631 17.3042 39.9003 16.6862C40.3268 15.5759 40.6003 14.4305 40.683 13.2474C40.7243 12.6572 40.728 12.0621 40.7135 11.4705C40.7011 10.9738 40.6656 10.475 40.5931 9.98334C40.4197 8.81089 40.0969 7.67768 39.5848 6.60085C39.1126 5.60822 38.5054 4.71051 37.6734 3.96836C37.0387 3.40247 36.322 2.97573 35.4987 2.72739C34.687 2.48191 33.8637 2.44481 33.0266 2.57682C32.3172 2.68886 31.6629 2.93719 31.0674 3.3254C30.1055 3.95194 29.3417 4.76545 28.7476 5.73524C28.0237 6.91769 27.5805 8.20218 27.3252 9.55161C27.1728 10.358 27.1126 11.1729 27.1134 11.9929H27.1155Z" fill="white"/>
<path d="M152.103 20.4134V23.0431C152.032 23.0459 151.968 23.0509 151.904 23.0509C150.254 23.0538 148.605 23.0573 146.955 23.0573C143.173 23.0581 139.39 23.0616 135.608 23.0531C135.108 23.0516 134.604 23.0152 134.11 22.9453C133.351 22.8368 132.804 22.4258 132.496 21.7236C132.346 21.3818 132.261 21.025 132.238 20.6568C132.209 20.1958 132.187 19.7334 132.186 19.2717C132.182 14.4092 132.184 9.54736 132.184 4.68485C132.184 4.18675 132.187 3.68866 132.263 3.19413C132.324 2.79165 132.447 2.40845 132.655 2.05592C133.001 1.47291 133.529 1.14822 134.2 1.05188C134.527 1.00478 134.861 0.977666 135.192 0.976953C140.763 0.972671 146.334 0.974098 151.905 0.974812C151.966 0.974812 152.025 0.974812 152.111 0.974812C152.113 1.20245 152.114 1.4201 152.114 1.63704C152.114 1.86254 152.114 2.08804 152.114 2.31282C152.114 2.5319 152.12 2.75169 152.113 2.97077C152.106 3.18699 152.146 3.40535 152.096 3.63085C151.913 3.63085 151.745 3.63085 151.577 3.63085C147.866 3.63085 144.157 3.62943 140.447 3.62943C140.12 3.62943 139.796 3.64298 139.477 3.7279C139.078 3.83423 138.814 4.06259 138.743 4.47077C138.706 4.68628 138.669 4.90464 138.669 5.12229C138.662 6.6701 138.664 8.2172 138.664 9.76501C138.664 9.78285 138.664 9.80069 138.664 9.81853C138.669 9.96553 138.678 9.97338 138.835 9.97838C138.884 9.97981 138.932 9.97909 138.981 9.97909C143.18 9.97909 147.38 9.97909 151.579 9.97909C151.692 9.97909 151.805 9.98766 151.929 9.99265V12.5866C151.851 12.5923 151.776 12.6023 151.7 12.6023C150.129 12.6059 148.558 12.6094 146.987 12.6094C144.353 12.6094 141.718 12.608 139.084 12.6073C138.981 12.6073 138.878 12.5995 138.775 12.6023C138.668 12.6059 138.653 12.6244 138.654 12.7322C138.656 12.8328 138.664 12.9334 138.664 13.034C138.664 14.9965 138.662 16.9596 138.666 18.922C138.666 19.1461 138.675 19.3751 138.719 19.5942C138.782 19.9118 138.99 20.1309 139.295 20.2536C139.55 20.3556 139.817 20.3956 140.092 20.3956C142.684 20.3977 145.276 20.402 147.869 20.4049C149.235 20.4063 150.6 20.4042 151.966 20.4035C152.006 20.4035 152.048 20.4092 152.103 20.4127V20.4134Z" fill="white"/>
<path d="M106.589 9.98691C110.995 9.98691 115.374 9.98691 119.754 9.98834C119.782 9.98834 119.809 10.0062 119.84 10.0169V12.6016C117.626 12.618 115.423 12.6087 113.22 12.6101C111.021 12.6116 108.823 12.6101 106.61 12.6101C106.6 12.6587 106.586 12.7029 106.584 12.7471C106.578 12.8656 106.577 12.9841 106.577 13.1025C106.577 15.0057 106.575 16.9089 106.578 18.8128C106.578 19.0433 106.596 19.2752 106.623 19.5043C106.665 19.8725 106.873 20.1244 107.223 20.2628C107.468 20.3592 107.727 20.3841 107.987 20.392C108.295 20.402 108.603 20.4041 108.911 20.4041C112.452 20.4034 115.993 20.4013 119.534 20.4006C119.695 20.4006 119.856 20.4041 120.026 20.4063C120.03 20.4819 120.036 20.534 120.036 20.5861C120.036 21.339 120.033 22.0918 120.032 22.8454C120.032 22.8811 120.031 22.9167 120.031 22.9524C120.029 23.0181 119.991 23.048 119.928 23.0502C119.891 23.0509 119.855 23.0523 119.819 23.0523C119.336 23.0545 118.852 23.058 118.369 23.058C113.668 23.058 108.967 23.0595 104.266 23.0566C103.741 23.0566 103.215 23.043 102.69 23.0181C102.342 23.0017 101.992 22.9717 101.656 22.8589C101.193 22.7034 100.821 22.4386 100.569 22.0219C100.358 21.6758 100.23 21.299 100.187 20.9008C100.144 20.5005 100.107 20.098 100.106 19.6955C100.1 14.8337 100.102 9.97121 100.102 5.10941C100.102 4.67054 100.1 4.23168 100.117 3.79352C100.139 3.20194 100.252 2.62892 100.545 2.10156C100.865 1.52711 101.359 1.19457 102.009 1.0754C102.445 0.995473 102.883 0.971924 103.325 0.971924C108.763 0.975492 114.201 0.974778 119.64 0.975492C119.764 0.975492 119.89 0.978346 120.025 0.980487V3.60941C119.958 3.61512 119.901 3.6244 119.843 3.62511C119.402 3.62797 118.961 3.63082 118.52 3.63082C115.125 3.63153 111.729 3.63225 108.333 3.63225C108.013 3.63225 107.693 3.64152 107.381 3.72288C106.937 3.83848 106.673 4.13391 106.629 4.57421C106.592 4.93315 106.581 5.29566 106.58 5.65675C106.575 7.02045 106.578 8.38415 106.579 9.74785C106.579 9.82349 106.586 9.89914 106.59 9.98762L106.589 9.98691Z" fill="white"/>
<path d="M88.8978 23.0452H82.3773C82.3599 22.1204 82.3701 21.1977 82.3686 20.275C82.3672 19.3559 82.3686 18.4368 82.3686 17.5177V3.64229C82.299 3.63659 82.2359 3.62802 82.1728 3.62802C80.6321 3.62802 79.0914 3.62802 77.5507 3.62945C76.4387 3.63016 75.3274 3.63159 74.2154 3.6323C73.9651 3.6323 73.9688 3.63088 73.9688 3.38968C73.9702 2.70747 73.9688 2.02598 73.9688 1.34377C73.9688 1.22674 73.976 1.10971 73.9796 0.983398H97.2781C97.3129 1.20747 97.3027 3.49672 97.2635 3.62874H88.9123C88.8847 4.28739 88.9021 4.93107 88.8992 5.57474C88.8963 6.22127 88.8992 6.86708 88.8992 7.51361V23.0452H88.8978Z" fill="white"/>
<path d="M64.2146 23.0466H57.7188C57.7109 23.0381 57.7065 23.0345 57.7029 23.0295C57.6993 23.0252 57.6956 23.0202 57.6935 23.0145C57.6898 23.0031 57.6869 22.9917 57.6848 22.9803C57.6833 22.9746 57.6833 22.9688 57.6826 22.9624C57.6819 22.956 57.6826 22.9503 57.6819 22.9446C57.6819 22.9325 57.6819 22.921 57.6819 22.9089C57.6819 22.8968 57.6819 22.8854 57.6819 22.8732C57.6819 16.5 57.6833 10.1261 57.6833 3.75286C57.6833 3.74073 57.6833 3.72931 57.6826 3.71718C57.6826 3.71147 57.6826 3.70505 57.6811 3.69934C57.6804 3.69363 57.6782 3.68792 57.6761 3.68222C57.6746 3.67651 57.6724 3.6708 57.663 3.64154C57.61 3.63654 57.5469 3.62584 57.4838 3.62584C54.8616 3.62584 52.2393 3.62798 49.6171 3.62869C49.5214 3.62869 49.4249 3.62869 49.311 3.62869C49.3008 3.5502 49.2856 3.48241 49.2849 3.4139C49.282 2.6432 49.282 1.87251 49.2812 1.10182C49.2812 1.06756 49.2885 1.03331 49.2921 1.00191C49.4517 0.965517 72.2714 0.952672 72.5833 0.986925C72.629 1.11109 72.6428 3.43317 72.5927 3.62441H64.2124V23.0459L64.2146 23.0466Z" fill="white"/>
<path d="M0.0664062 0.994827C0.431997 0.954865 6.38372 0.965569 6.55854 1.00767V1.19464C6.55854 6.91062 6.55854 12.6266 6.55999 18.3426C6.55999 18.6444 6.5745 18.947 6.59771 19.2482C6.6144 19.4608 6.6688 19.6678 6.76527 19.8626C6.8719 20.0788 7.04237 20.2179 7.27449 20.285C7.45438 20.3371 7.63718 20.3678 7.82723 20.3671C8.84856 20.3642 9.86917 20.3671 10.8905 20.3671C13.4707 20.3671 16.0508 20.3678 18.631 20.3685C18.8704 20.3685 18.8726 20.3707 18.8733 20.6012C18.8747 21.3604 18.8747 22.119 18.874 22.8783C18.874 23.0438 18.8624 23.0531 18.6832 23.0538C17.9463 23.056 17.2093 23.0588 16.4716 23.0588C12.0424 23.0588 7.61324 23.0588 3.18481 23.0588C2.77352 23.0588 2.36295 23.0417 1.96109 22.9475C0.995616 22.7213 0.401531 22.1247 0.191897 21.1792C0.117908 20.8459 0.0830899 20.4984 0.0780123 20.1566C0.0627794 19.0419 0.0685824 17.9273 0.0685824 16.8126C0.0685824 12.0928 0.0685824 7.37304 0.0685824 2.65325C0.0685824 2.16728 0.067857 1.6806 0.0671316 1.19464C0.0671316 1.13041 0.0671316 1.06619 0.0671316 0.994827H0.0664062Z" fill="white"/>
</g>
<defs>
<clipPath id="clip0_21_1825">
<rect width="208" height="24" fill="white" transform="translate(0.0664062)"/>
</clipPath>
</defs>
</svg>
