<svg width="198" height="50" viewBox="0 0 198 50" fill="none" xmlns="http://www.w3.org/2000/svg">
<path d="M49.9213 0C46.8791 0 44.4102 2.4666 44.4102 5.5111C44.4102 8.5556 46.8768 11.0222 49.9213 11.0222C52.9658 11.0222 55.4324 8.5556 55.4324 5.5111C55.4441 2.47835 52.9939 0.0117457 49.9612 0H49.9236" fill="white"/>
<path d="M54.0672 13.4396H45.676C45.0605 13.4396 44.5625 13.9376 44.5625 14.5531V47.77C44.5625 48.3855 45.0605 48.8835 45.676 48.8835H54.0672C54.6826 48.8835 55.1807 48.3855 55.1807 47.77V14.5742C55.1924 13.9587 54.7014 13.4513 54.086 13.4419H54.0672" fill="white"/>
<path d="M83.0218 12.5962C75.1498 12.5962 72.8453 15.8803 71.5016 17.224V14.593C71.5227 13.9775 71.0411 13.463 70.4257 13.4419C70.4116 13.4419 70.3998 13.4419 70.3857 13.4419H62.1496C61.5341 13.4536 61.0455 13.9587 61.0549 14.5742V47.7724C61.0431 48.3878 61.5341 48.8953 62.1496 48.9047H70.5596C71.1633 48.9047 71.6543 48.416 71.6543 47.8123C71.6543 47.7982 71.6543 47.7865 71.6543 47.7724V28.9956C71.6543 24.1963 74.5719 20.6044 79.4487 20.6044C84.6521 20.6044 87.1281 24.2903 87.1281 28.9956V47.7724C87.1164 48.3878 87.6073 48.8953 88.2228 48.9047H96.6516C97.267 48.8953 97.7557 48.3878 97.7463 47.7724V26.4021C97.7463 16.033 90.5273 12.5962 82.9419 12.5962" fill="white"/>
<path d="M125.568 12.5962C117.677 12.5962 115.391 15.8803 114.047 17.224V14.593C114.08 13.9893 113.617 13.4748 113.014 13.4419C112.981 13.4419 112.948 13.4419 112.915 13.4419H104.698C104.106 13.4936 103.657 14.001 103.681 14.593V47.77C103.669 48.3855 104.16 48.8929 104.775 48.9023H113.089C113.704 48.9023 114.202 48.4043 114.202 47.7888V28.9933C114.202 24.194 117.12 20.6021 121.978 20.6021C127.2 20.6021 129.657 24.2879 129.657 28.9933V47.77C129.636 48.3738 130.109 48.8812 130.712 48.9023C130.726 48.9023 130.738 48.9023 130.752 48.9023H139.162C139.778 48.8929 140.266 48.3855 140.257 47.77V26.3998C140.257 16.0307 133.038 12.5939 125.474 12.5939" fill="white"/>
<path d="M192.461 11.0223C195.503 11.034 197.979 8.57444 197.991 5.52994C198 2.48779 195.543 0.0117876 192.499 4.18948e-05C189.457 -0.0117039 186.98 2.44785 186.969 5.49V5.5088C186.969 8.5439 189.424 11.0082 192.461 11.0199" fill="white"/>
<path d="M196.665 13.4396H188.274C187.658 13.4396 187.16 13.9376 187.16 14.5531V47.77C187.16 48.3855 187.658 48.8835 188.274 48.8835H196.665C197.28 48.8835 197.778 48.3855 197.778 47.77V14.5742C197.778 13.9587 197.28 13.4607 196.665 13.4607" fill="white"/>
<path d="M16.9914 22.985H10.637V9.39043H16.9914C22.1384 9.39043 26.4373 10.2925 26.4373 16.1865C26.4373 22.0805 22.136 22.9826 16.9914 22.9826M28.8006 29.3981C31.0088 28.63 37.1518 26.5745 37.1518 16.1889C37.1518 5.80327 30.2406 2 18.1636 2H1.1135C0.505068 2 0.0093966 2.48627 0 3.0947V47.4842C0.0093966 48.088 0.509766 48.5695 1.1135 48.5602H9.60098C10.2047 48.5695 10.7027 48.0903 10.7145 47.4842V30.3754H17.2803L28.9721 47.2141C29.5194 48.0598 30.4614 48.5672 31.4669 48.5578H40.3185C40.7953 48.5672 41.19 48.189 41.1994 47.7121C41.2041 47.543 41.1571 47.3762 41.0655 47.2329L28.7959 29.3958L28.8006 29.3981Z" fill="white"/>
<path d="M171.245 34.906C171.245 40.0319 167.963 43.067 162.337 43.2197C158.19 43.3348 154.657 41.5682 154.657 38.8221C154.427 32.6015 167.369 32.8505 170.267 33.062C171.266 33.062 171.324 33.062 171.324 33.6375L171.247 34.9037L171.245 34.906ZM156.71 13.5758C149.529 15.495 146.842 20.0265 145.881 22.869C145.709 23.3882 146.266 23.811 146.745 23.811H156.21C156.555 23.8345 156.896 23.7006 157.131 23.4469C159.036 21.2434 161.923 20.1487 164.81 20.5292C171.625 20.9333 171.09 26.4608 171.09 26.9236C148.183 24.8305 142.442 35.0446 145.343 42.5713C148.683 51.2115 165.445 52.1699 170.918 46.2008C171.59 48.12 171.726 48.9657 173.241 48.9657H180.479C181.095 48.9774 181.602 48.4865 181.611 47.871V26.8837C181.611 11.7552 164.658 11.525 156.786 13.6157" fill="white"/>
</svg>
