<svg width="39" height="31" viewBox="0 0 39 31" fill="none" xmlns="http://www.w3.org/2000/svg">
<path d="M19.2567 30.7355C19.2566 30.7355 19.2564 30.7354 19.2562 30.7354C15.9686 30.7354 12.681 30.7318 9.39423 30.7418C9.08281 30.7427 8.86089 30.6664 8.63897 30.4357C6.39327 28.096 4.13296 25.77 1.87995 23.4367C1.33291 22.87 0.784043 22.3041 0.26166 21.7156C0.124671 21.5612 0.00686105 21.3241 0.00686105 21.1252C-0.00501129 17.296 -0.00135821 13.466 0.0169069 9.63677C0.0178202 9.44332 0.139283 9.2099 0.278098 9.06367C2.14571 7.09821 4.02519 5.14548 5.90285 3.18911C6.86634 2.18458 7.82252 1.1737 8.80518 0.187342C8.92938 0.0620033 9.18966 0.0256733 9.38692 0.024765C12.6893 0.010233 15.9925 0.0075083 19.2949 0.0038753C20.5579 0.00296705 21.8209 0.021132 23.084 0.000242301C23.5232 -0.0070237 23.6858 0.148287 23.6748 0.579706C23.6529 1.42619 23.6465 2.2745 23.6666 3.1219C23.6767 3.55059 23.5324 3.695 23.0885 3.69319C19.1159 3.67593 15.1441 3.68229 11.1714 3.67321C10.8481 3.67321 10.6262 3.76221 10.3888 4.00653C8.35403 6.10641 6.30286 8.19084 4.24255 10.2662C3.85715 10.654 3.67359 11.0555 3.68089 11.6213C3.71286 14.2089 3.70373 16.7974 3.68911 19.3859C3.68729 19.7465 3.77861 20.0253 4.02337 20.2787C5.49828 21.8037 6.97045 23.3305 8.44079 24.8599C9.05998 25.5039 9.66181 26.1669 10.2974 26.7945C10.449 26.9435 10.7057 27.067 10.9139 27.067C16.4537 27.0806 21.9944 27.0806 27.5343 27.0634C27.7699 27.0634 28.0667 26.9335 28.2311 26.7645C30.3389 24.6084 32.4266 22.4331 34.5234 20.266C34.7691 20.0117 34.8695 19.7411 34.8677 19.3768C34.8504 16.7584 34.8494 14.1399 34.8677 11.5214C34.8714 11.0446 34.717 10.6976 34.3883 10.3606C32.4722 8.39974 30.5681 6.42702 28.6722 4.44703C28.2018 3.95567 27.748 3.50336 26.9735 3.67775C26.6575 3.74859 26.5534 3.55604 26.5571 3.25359C26.5671 2.31537 26.5689 1.37715 26.5525 0.438927C26.547 0.119223 26.6776 0.0056918 26.9808 0.0093248C27.7717 0.0184073 28.5635 0.00841655 29.3544 0.0311228C29.5023 0.035664 29.6813 0.122856 29.7864 0.23003C31.2631 1.72955 32.7353 3.23361 34.1965 4.74857C35.5499 6.15273 36.8979 7.56324 38.2248 8.99192C38.3975 9.1772 38.5125 9.49055 38.5143 9.74576C38.5399 13.5441 38.5445 17.3433 38.5408 21.1425C38.5408 21.3214 38.4669 21.5457 38.3463 21.6711C35.5116 24.6229 32.6686 27.5674 29.8119 30.4975C29.6685 30.6446 29.3845 30.7191 29.1663 30.72C25.8647 30.7336 22.5623 30.73 19.2608 30.73C19.2594 30.73 19.2583 30.7311 19.2583 30.7324V30.7345C19.2583 30.7354 19.2575 30.7359 19.2567 30.7355Z" fill="#5CC76D"/>
<path d="M17.7212 20.5858C18.2167 20.5858 18.7113 20.5858 19.2068 20.5858C21.031 20.5876 22.8562 20.5958 24.6804 20.5794C24.8638 20.5776 25.091 20.47 25.2215 20.337C26.1232 19.4164 26.9992 18.4704 27.8972 17.5462C28.1582 17.2783 28.2823 17.003 28.2622 16.6175C28.2239 15.8446 28.2586 15.0681 28.2166 14.2952C28.2029 14.0446 28.1052 13.7448 27.9401 13.5652C26.9956 12.5381 26.0228 11.5364 25.0472 10.5375C24.9578 10.4464 24.7826 10.399 24.6475 10.399C21.0593 10.3917 17.4702 10.3926 13.882 10.4008C13.746 10.4008 13.5708 10.4537 13.4805 10.5457C12.4639 11.5893 11.4555 12.641 10.4608 13.7047C10.3404 13.8332 10.2573 14.0464 10.2528 14.2223C10.2318 15.0727 10.2199 15.9239 10.2582 16.7724C10.2701 17.0322 10.3869 17.3412 10.5612 17.5316C12.0368 19.1439 13.5425 20.7279 15.0264 22.3329C15.4681 22.8114 15.8705 23.3273 16.2821 23.8331C16.2899 23.8428 16.2974 23.8527 16.3046 23.863C16.427 24.0371 16.2823 24.3079 16.0694 24.3079C14.8229 24.3079 13.5754 24.3125 12.3288 24.2924C12.1564 24.2897 11.9401 24.2022 11.8214 24.0792C10.1834 22.3913 8.55264 20.6951 6.93923 18.9844C6.78318 18.8186 6.67368 18.5378 6.67094 18.3091C6.64812 16.4106 6.64812 14.5122 6.66546 12.6146C6.66729 12.4013 6.76676 12.1389 6.91277 11.9839C8.43675 10.3589 9.98263 8.75481 11.513 7.13524C11.8014 6.82992 12.1071 6.68319 12.5451 6.68319C17.0158 6.68865 21.4864 6.67772 25.9562 6.65311C26.4079 6.65037 26.7273 6.79711 27.0302 7.11793C28.5168 8.69557 30.0152 10.2632 31.5191 11.8235C31.7756 12.0896 31.8933 12.3494 31.8887 12.7395C31.8632 14.6069 31.8906 16.4753 31.8769 18.3428C31.875 18.5442 31.7838 18.7921 31.6469 18.937C30.1366 20.5365 28.5971 22.1087 27.095 23.7164C26.7127 24.1257 26.3294 24.3152 25.7563 24.3016C24.3281 24.2669 22.8982 24.3007 21.4691 24.318C21.1159 24.3225 20.8595 24.2277 20.604 23.947C19.7462 23.0046 18.8427 22.1042 17.9639 21.1809C17.8547 21.0668 17.7782 20.9207 17.6913 20.7858C17.6759 20.7619 17.6721 20.7322 17.6817 20.7054C17.6957 20.6667 17.7099 20.6277 17.7236 20.5892C17.7242 20.5875 17.723 20.5858 17.7212 20.5858Z" fill="#5CC76D"/>
<path d="M25.4644 15.3794C25.4644 15.3794 25.4643 15.3795 25.4642 15.3795C24.8466 16.0269 24.2643 16.6527 23.6585 17.2559C23.5482 17.3659 23.342 17.4317 23.1801 17.4326C20.574 17.4389 17.9679 17.4362 15.3618 17.4164C15.1801 17.4146 14.9594 17.3019 14.8265 17.1711C13.8225 16.1839 13.8177 14.5457 14.8042 13.5411C14.8306 13.5142 14.857 13.4874 14.8835 13.4606C14.982 13.3605 15.1801 13.3172 15.332 13.3163C17.9833 13.3055 20.6346 13.301 23.285 13.3145C23.4505 13.3145 23.6494 13.4462 23.7742 13.5742C24.3383 14.1529 24.8816 14.7524 25.4647 15.3789C25.4649 15.3791 25.4647 15.3794 25.4644 15.3794Z" fill="#5CC76D"/>
</svg>
