<svg width="26" height="26" viewBox="0 0 26 26" fill="none" xmlns="http://www.w3.org/2000/svg">
<path d="M21.5122 4.475C19.1415 2.1125 15.9805 0.799999 12.6439 0.799999C5.70731 0.799999 0.0878035 6.4 0.0878035 13.3125C0.0878035 15.5 0.702439 17.6875 1.7561 19.525L0 26L6.67317 24.25C8.51708 25.2125 10.5366 25.7375 12.6439 25.7375C19.5805 25.7375 25.2 20.1375 25.2 13.225C25.1122 9.9875 23.8829 6.8375 21.5122 4.475ZM18.7024 17.775C18.439 18.475 17.2098 19.175 16.5951 19.2625C16.0683 19.35 15.3659 19.35 14.6634 19.175C14.2244 19 13.6098 18.825 12.9073 18.475C9.74634 17.1625 7.72683 14.0125 7.55122 13.75C7.37561 13.575 6.23415 12.0875 6.23415 10.5125C6.23415 8.9375 7.02439 8.2375 7.2878 7.8875C7.55122 7.5375 7.90244 7.5375 8.16585 7.5375C8.34146 7.5375 8.60487 7.5375 8.78048 7.5375C8.95609 7.5375 9.21951 7.45 9.48293 8.0625C9.74634 8.675 10.361 10.25 10.4488 10.3375C10.5366 10.5125 10.5366 10.6875 10.4488 10.8625C10.361 11.0375 10.2732 11.2125 10.0976 11.3875C9.92195 11.5625 9.74634 11.825 9.65853 11.9125C9.48292 12.0875 9.30732 12.2625 9.48293 12.525C9.65854 12.875 10.2732 13.8375 11.239 14.7125C12.4683 15.7625 13.4341 16.1125 13.7854 16.2875C14.1366 16.4625 14.3122 16.375 14.4878 16.2C14.6634 16.025 15.2781 15.325 15.4537 14.975C15.6293 14.625 15.8927 14.7125 16.1561 14.8C16.4195 14.8875 18 15.675 18.2634 15.85C18.6146 16.025 18.7902 16.1125 18.878 16.2C18.9659 16.4625 18.9659 17.075 18.7024 17.775Z" fill="#26BF5D"/>
</svg>
